<svg width="115.23121337890625px" height="122px" xmlns="http://www.w3.org/2000/svg" viewBox="192.38439331054687 14 115.23121337890625 122" style="background: rgba(0, 0, 0, 0);" preserveAspectRatio="xMidYMid"><defs><linearGradient id="editing-gradow-gradient" x1="0" x2="1" y1="0.5" y2="0.5" gradientUnits="objectBoundingBox"><stop offset="0" stop-color="#f0f"></stop><stop offset="1" stop-color="#0ff"></stop></linearGradient><filter id="editing-gradow-filter" x="-100%" y="-100%" width="300%" height="300%"><feFlood flood-color="#fffcd9" result="flood"></feFlood><feComposite operator="in" in2="SourceAlpha" in="flood" result="shadow"></feComposite><feOffset dx="-4" dy="-4" in="SourceGraphic" result="offset-1"></feOffset><feOffset dx="4" dy="4" in="shadow" result="offset-2"></feOffset><feMerge><feMergeNode in="offset-2"></feMergeNode><feMergeNode in="offset-1"></feMergeNode></feMerge></filter></defs><g filter="url(#editing-gradow-filter)"><g transform="translate(214.83001512289047, 97.39999961853027)"><path d="M27.84-9.86L27.84-9.86L27.84-9.86Q29.06-8.32 29.06-5.34L29.06-5.34L29.06-5.34Q29.06-2.37 26.78-0.54L26.78-0.54L26.78-0.54Q24.51 1.28 20.54 1.28L20.54 1.28L20.54 1.28Q18.24 1.28 14.66 0.77L14.66 0.77L14.66 0.77Q7.62-0.32 5.60-0.32L5.60-0.32L5.60-0.32Q3.58-0.32 2.75-0.22L2.75-0.22L2.75-0.22Q1.92-0.13 0.58 0L0.58 0L8.32-42.24L22.34-42.24L15.94-7.04L15.94-7.04Q16.77-6.91 17.54-6.91L17.54-6.91L19.14-6.91L19.14-6.91Q24.51-6.91 27.84-9.86ZM58.30-29.57L58.30-29.57L58.30-29.57Q59.26-31.49 59.26-33.28L59.26-33.28L59.26-33.28Q59.26-35.07 59.07-36.06L59.07-36.06L59.07-36.06Q58.88-37.06 58.43-37.82L58.43-37.82L58.43-37.82Q57.47-39.49 55.55-39.49L55.55-39.49L55.55-39.49Q53.18-39.49 51.26-37.76L51.26-37.76L51.26-37.76Q49.22-35.97 49.22-33.15L49.22-33.15L49.22-33.15Q49.22-31.36 50.46-29.98L50.46-29.98L50.46-29.98Q51.71-28.61 53.63-27.33L53.63-27.33L53.63-27.33Q55.55-26.05 57.73-24.77L57.73-24.77L57.73-24.77Q59.90-23.49 61.82-21.95L61.82-21.95L61.82-21.95Q66.24-18.43 66.24-13.70L66.24-13.70L66.24-13.70Q66.24-10.50 64.54-7.78L64.54-7.78L64.54-7.78Q62.85-5.06 60.03-3.07L60.03-3.07L60.03-3.07Q53.89 1.28 45.76 1.28L45.76 1.28L45.76 1.28Q39.17 1.28 35.78-0.86L35.78-0.86L35.78-0.86Q32.38-3.01 32.38-6.27L32.38-6.27L32.38-6.27Q32.38-12.10 36.93-13.57L36.93-13.57L36.93-13.57Q38.21-14.02 40.16-14.02L40.16-14.02L40.16-14.02Q42.11-14.02 44.35-13.18L44.35-13.18L44.35-13.18Q43.33-10.56 43.33-8.19L43.33-8.19L43.33-8.19Q43.33-3.07 46.98-3.07L46.98-3.07L46.98-3.07Q49.34-3.07 51.30-4.80L51.30-4.80L51.30-4.80Q53.25-6.53 53.25-8.48L53.25-8.48L53.25-8.48Q53.25-10.43 52-11.84L52-11.84L52-11.84Q50.75-13.25 48.90-14.37L48.90-14.37L48.90-14.37Q47.04-15.49 44.90-16.58L44.90-16.58L44.90-16.58Q42.75-17.66 40.90-19.20L40.90-19.20L40.90-19.20Q36.54-22.72 36.54-28.35L36.54-28.35L36.54-28.35Q36.54-32 38.34-34.85L38.34-34.85L38.34-34.85Q40.13-37.70 43.01-39.62L43.01-39.62L43.01-39.62Q48.77-43.52 55.84-43.52L55.84-43.52L55.84-43.52Q62.91-43.52 66.34-41.41L66.34-41.41L66.34-41.41Q69.76-39.30 69.76-35.71L69.76-35.71L69.76-35.71Q69.76-32.58 67.33-30.59L67.33-30.59L67.33-30.59Q65.22-28.93 62.66-28.93L62.66-28.93L62.66-28.93Q60.10-28.93 58.30-29.57Z" fill="url(#editing-gradow-gradient)"></path></g></g><style>text {
  font-size: 64px;
  font-family: Arial Black;
  dominant-baseline: central;
  text-anchor: middle;
}</style></svg>